<svg height="512pt" viewBox="-71 0 512 512" width="512pt" xmlns="http://www.w3.org/2000/svg"><path d="m330 332.121094v-252.121094c0-22.054688-17.945312-40-40-40h-210c-22.054688 0-40 17.945312-40 40v352c0 22.054688 17.945312 40 40 40h210c22.054688 0 40-17.945312 40-40 0-11.046875 8.953125-20 20-20s20 8.953125 20 20c0 44.113281-35.886719 80-80 80h-210c-44.113281 0-80-35.886719-80-80v-352c0-44.113281 35.886719-80 80-80h210c44.113281 0 80 35.886719 80 80v252.121094c0 11.046875-8.953125 20-20 20s-20-8.953125-20-20zm-165 89c0 11.046875 8.953125 20 20 20s20-8.953125 20-20-8.953125-20-20-20-20 8.953125-20 20zm40-310c11.046875 0 20-8.953125 20-20s-8.953125-20-20-20h-40c-11.046875 0-20 8.953125-20 20s8.953125 20 20 20zm70 246c11.046875 0 20-8.953125 20-20v-122c0-11.046875-8.953125-20-20-20s-20 8.953125-20 20v102h-20v-142c0-11.046875-8.953125-20-20-20s-20 8.953125-20 20v142h-20v-62c0-11.046875-8.953125-20-20-20s-20 8.953125-20 20v62h-20v-102c0-11.046875-8.953125-20-20-20s-20 8.953125-20 20v122c0 11.046875 8.953125 20 20 20zm0 0"/></svg>