<svg height="682.66669pt" viewBox="-21 -21 682.66669 682.66669" width="682.66669pt" xmlns="http://www.w3.org/2000/svg"><path d="m516.613281 338.980469c-10.4375 0-18.898437-8.460938-18.898437-18.898438s8.460937-18.894531 18.898437-18.894531h21.230469c-9.078125-105.480469-93.378906-189.785156-198.863281-198.863281v21.230469c0 10.433593-8.460938 18.898437-18.898438 18.898437s-18.894531-8.464844-18.894531-18.898437v-21.230469c-105.484375 9.078125-189.785156 93.382812-198.863281 198.863281h21.230469c10.433593 0 18.898437 8.457031 18.898437 18.894531s-8.464844 18.898438-18.898437 18.898438h-21.230469c9.078125 105.476562 93.378906 189.785156 198.863281 198.863281v-21.230469c0-10.4375 8.460938-18.898437 18.894531-18.898437 10.441407 0 18.898438 8.460937 18.898438 18.898437v21.230469c105.484375-9.078125 189.785156-93.386719 198.863281-198.863281zm-177.632812-18.898438c0 8.683594-5.914063 16.246094-14.335938 18.339844-1.523437.378906-3.050781.5625-4.566406.5625-6.871094 0-13.359375-3.765625-16.695313-10.054687l-79.4375-149.871094c-4.886718-9.222656-1.375-20.660156 7.847657-25.546875 9.21875-4.886719 20.660156-1.378907 25.546875 7.847656l43.84375 82.722656v-40.738281c0-10.4375 8.460937-18.894531 18.898437-18.894531s18.898438 8.457031 18.898438 18.894531zm0 0"/><path d="m546.359375 93.808594c-60.441406-60.4375-140.800781-93.7265628-226.277344-93.7265628-85.472656 0-165.832031 33.2890628-226.273437 93.7265628-60.4375 60.441406-93.7265628 140.800781-93.7265628 226.273437 0 85.476563 33.2890628 165.835938 93.7265628 226.277344 60.441406 60.4375 140.800781 93.722656 226.273437 93.722656 85.476563 0 165.835938-33.285156 226.277344-93.722656 60.4375-60.441406 93.722656-140.800781 93.722656-226.277344 0-85.472656-33.285156-165.832031-93.722656-226.273437zm-226.277344 482.652344c-141.367187 0-256.375-115.011719-256.375-256.378907 0-141.367187 115.007813-256.375 256.375-256.375 141.367188 0 256.378907 115.007813 256.378907 256.375 0 141.367188-115.011719 256.378907-256.378907 256.378907zm0 0"/></svg>