<?xml version="1.0"?>
<svg xmlns="http://www.w3.org/2000/svg" height="512px" viewBox="-64 0 512 512" width="512px"><path d="m111.398438 96.398438h160.667968c8.285156 0 15-6.714844 15-15v-18.199219c0-8.285157-6.714844-15-15-15h-18.929687c-6.753907-27.632813-31.722657-48.199219-61.402344-48.199219-29.683594 0-54.652344 20.566406-61.402344 48.199219h-18.933593c-8.285157 0-15 6.714843-15 15v18.199219c0 8.285156 6.714843 15 15 15zm0 0" fill="#717f8a"/><path d="m344.367188 48.199219h-29.875c1.664062 4.695312 2.574218 9.742187 2.574218 15v33.199219h3.195313c8.292969 0 15 6.722656 15 15v337.402343c0 8.277344-6.707031 15-15 15h-257.058594c-8.289063 0-15-6.722656-15-15v-337.402343c0-8.277344 6.710937-15 15-15h3.195313v-33.199219c0-5.257813.914062-10.304688 2.578124-15h-29.875c-21.5625 0-39.101562 17.539062-39.101562 39.101562v385.597657c0 21.5625 17.539062 39.101562 39.101562 39.101562h305.265626c21.558593 0 39.101562-17.539062 39.101562-39.101562v-385.597657c-.003906-21.5625-17.542969-39.101562-39.101562-39.101562zm0 0" fill="#717f8a"/><path d="m305.261719 126.398438h-227.058594v307.402343h227.058594zm-137.628907 50.335937h9.101563v-9.101563c0-8.285156 6.714844-15 15-15 8.28125 0 15 6.714844 15 15v9.101563h9.097656c8.285157 0 15 6.714844 15 15 0 8.28125-6.714843 15-15 15h-9.097656v9.097656c0 8.285157-6.71875 15-15 15-8.285156 0-15-6.714843-15-15v-9.097656h-9.101563c-8.285156 0-15-6.71875-15-15 0-8.285156 6.714844-15 15-15zm24.101563 206.734375h-64.269531c-8.28125 0-15-6.71875-15-15 0-8.285156 6.71875-15 15-15h64.269531c8.28125 0 15 6.714844 15 15 0 8.28125-6.71875 15-15 15zm64.265625-48.203125h-128.535156c-8.28125 0-15-6.714844-15-15 0-8.28125 6.71875-15 15-15h128.535156c8.28125 0 15 6.71875 15 15 0 8.285156-6.714844 15-15 15zm0-48.199219h-128.535156c-8.28125 0-15-6.714844-15-15s6.71875-15 15-15h128.535156c8.28125 0 15 6.714844 15 15s-6.714844 15-15 15zm0 0" fill="#717f8a"/></svg>
