<?xml version="1.0"?>
<svg xmlns="http://www.w3.org/2000/svg" id="Capa_1" enable-background="new 0 0 512 512" height="512px" viewBox="0 0 512 512" width="512px" class=""><g><g><path d="m506.515 435.43c-.22-.19-19.149-15.8-41.977-34.5 67.431-64.298 62.527-158.456-11.621-218.356 25.314 124.028-93.502 227.702-239.807 227.702h-69.361c39.66 32.598 95.395 51.724 155.118 51.724h198.108c14.03 0 20.374-17.641 9.54-26.57z" data-original="#000000" class="active-path" data-old_color="#000000" fill="#34495E"/><path d="m426.215 215.138c0-93.313-97.576-165.138-213.105-165.138-115.434 0-213.104 71.781-213.104 165.138 0 38.381 16.709 74.765 47.435 104.063-22.825 18.704-41.754 34.316-41.98 34.503-10.805 8.913-4.506 26.571 9.544 26.571h198.105c115.632 0 213.105-71.907 213.105-165.137zm-115.611 75c-8.284 0-14.999-6.716-14.999-15s6.715-15 14.999-15 14.999 6.716 14.999 15-6.715 15-14.999 15zm-135.492-150h135.492c8.284 0 14.999 6.716 14.999 15s-6.715 15-14.999 15h-135.492c-8.284 0-14.999-6.716-14.999-15s6.716-15 14.999-15zm-59.496 1c8.284 0 14.999 6.716 14.999 15s-6.715 15-14.999 15-14.999-6.716-14.999-15c0-8.285 6.716-15 14.999-15zm0 59h194.988c8.284 0 14.999 6.716 14.999 15s-6.715 15-14.999 15h-194.988c-8.284 0-14.999-6.716-14.999-15s6.715-15 14.999-15zm-14.999 75c0-8.284 6.715-15 14.999-15h132.492c8.284 0 14.999 6.716 14.999 15s-6.715 15-14.999 15h-132.492c-8.284 0-14.999-6.716-14.999-15z" data-original="#000000" class="active-path" data-old_color="#000000" fill="#34495E"/></g></g> </svg>
