<?xml version="1.0" encoding="iso-8859-1"?>
<!-- Generator: Adobe Illustrator 19.0.0, SVG Export Plug-In . SVG Version: 6.00 Build 0)  -->
<svg version="1.1" id="Capa_1" xmlns="http://www.w3.org/2000/svg" xmlns:xlink="http://www.w3.org/1999/xlink" x="0px" y="0px"
	 viewBox="0 0 512 512" style="enable-background:new 0 0 512 512;" xml:space="preserve">
<g>
	<g>
		<g>
			<path d="M391,177c-11.046,0-20,8.954-20,20s8.954,20,20,20h21c11.046,0,20-8.954,20-20s-8.954-20-20-20H391z"/>
			<path d="M492,327c11.046,0,20-8.954,20-20V177c0-44.112-35.888-80-80-80h-60.361c-8.565,0-16.174-5.448-18.933-13.554
				l-6.051-17.779C338.376,41.343,315.549,25,289.855,25H162.084c-25.197,0-47.876,15.923-56.432,39.62l-6.925,19.173
				C95.875,91.693,88.315,97,79.916,97c-0.028,0-0.056,0.001-0.085,0C35.797,97.092,0,132.944,0,177v230c0,44.112,35.888,80,80,80
				h352c44.112,0,80-35.888,80-80c0-11.046-8.954-20-20-20c-11.046,0-20,8.954-20,20c0,22.056-17.944,40-40,40H80
				c-22.056,0-40-17.944-40-40V177c0-22.056,17.944-40,40-40c0.041,0.001,0.079,0.001,0.119,0
				c25.116-0.085,47.695-15.986,56.229-39.62l6.925-19.173C146.125,70.307,153.685,65,162.084,65h127.77
				c8.565,0,16.173,5.447,18.933,13.554l6.052,17.78c8.28,24.324,31.107,40.666,56.8,40.666H432c22.056,0,40,17.944,40,40v130
				C472,318.046,480.954,327,492,327z"/>
			<path d="M222,157c-68.925,0-125,56.075-125,125s56.075,125,125,125s125-56.075,125-125S290.925,157,222,157z M222,367
				c-46.869,0-85-38.131-85-85c0-46.869,38.131-85,85-85s85,38.131,85,85C307,328.869,268.869,367,222,367z"/>
		</g>
	</g>
</g>
<g>
</g>
<g>
</g>
<g>
</g>
<g>
</g>
<g>
</g>
<g>
</g>
<g>
</g>
<g>
</g>
<g>
</g>
<g>
</g>
<g>
</g>
<g>
</g>
<g>
</g>
<g>
</g>
<g>
</g>
</svg>
