<svg width="1980" height="325" xmlns="http://www.w3.org/2000/svg">

 <g>
  <title>background</title>
  <rect fill="none" id="canvas_background" height="327" width="1982" y="-1" x="-1"/>
 </g>
 <g>
  <title>Layer 1</title>
  <g id="svg_3">
   <g stroke="null" transform="rotate(-45 128.2772521972656,161.61062622070312) " id="svg_12">
    <path stroke="null" id="svg_5" fill="#344C5C" class="active-path" d="m246.79597,54.84109l-66.28827,64.7056c25.3703,24.81201 47.6233,52.4854 66.28827,82.4356l0,-147.1412z"/>
    <path stroke="null" id="svg_6" fill="#344C5C" class="active-path" d="m162.18975,119.58527c-33.65038,-32.09196 -68.92091,-57.61645 -98.60403,-71.41456l-53.82714,220.20584l152.43118,-148.79128z"/>
    <path stroke="null" id="svg_7" fill="#344C5C" class="active-path" d="m18.89669,277.30087l225.58657,-52.55043c-14.13764,-28.97831 -40.28324,-63.40354 -73.15393,-96.24443l-152.43264,148.79486z"/>
    <path stroke="null" id="svg_8" fill="#344C5C" class="active-path" d="m237.65713,45.92034l-150.72977,0c30.67731,18.22239 59.02288,39.94361 84.44077,64.7056l66.289,-64.7056z"/>
   </g>
   <text stroke="null" transform="matrix(1.1211752891540527,0,0,1.5670271700483909,-46.93459754437208,21.820468632076356) " font-weight="bold" xml:space="preserve" text-anchor="start" font-family="Oswald, sans-serif" font-size="250" id="svg_14" y="177.13177" x="384.95368" stroke-width="0" fill="#344C5C">BARRILETE</text>
  </g>
 </g>
</svg>
