<?xml version="1.0" standalone="no"?>
<!DOCTYPE svg PUBLIC "-//W3C//DTD SVG 20010904//EN"
 "http://www.w3.org/TR/2001/REC-SVG-20010904/DTD/svg10.dtd">
<svg version="1.0" xmlns="http://www.w3.org/2000/svg"
 width="2100.000000pt" height="420.000000pt" viewBox="0 0 2100.000000 420.000000"
 preserveAspectRatio="xMidYMid meet">
<metadata>
Created by potrace 1.15, written by Peter Selinger 2001-2017
</metadata>
<g transform="translate(0.000000,420.000000) scale(0.100000,-0.100000)"
fill="#000000" stroke="none">
<path d="M1000 3653 c-300 -302 -644 -648 -765 -770 l-220 -223 773 0 772 0 0
770 c0 424 -3 770 -8 770 -4 0 -252 -246 -552 -547z"/>
<path d="M1850 3430 l0 -770 777 0 778 0 -770 770 c-423 424 -773 770 -777
770 -5 0 -8 -346 -8 -770z"/>
<path d="M4477 3752 l-27 -28 0 -1624 0 -1624 27 -28 27 -28 480 0 c600 0 680
10 858 102 243 126 385 380 419 747 22 242 -14 479 -98 650 -55 111 -153 217
-247 267 l-58 31 56 38 c176 117 267 342 266 660 -1 184 -30 325 -97 465 -108
225 -319 352 -648 390 -49 5 -279 10 -511 10 l-420 0 -27 -28z m889 -443 c169
-20 237 -68 276 -193 19 -59 23 -95 23 -206 0 -218 -37 -341 -123 -407 -72
-55 -124 -66 -334 -71 l-188 -4 0 450 0 450 133 -5 c72 -2 169 -8 213 -14z
m39 -1364 c161 -42 249 -140 288 -320 24 -109 30 -230 18 -352 -20 -195 -64
-295 -155 -348 -77 -45 -137 -56 -343 -62 l-193 -6 0 552 0 551 163 0 c114 0
180 -5 222 -15z"/>
<path d="M7175 3758 c-3 -13 -161 -753 -350 -1646 l-345 -1624 28 -34 27 -34
240 2 239 3 72 375 c40 206 75 390 79 407 l6 33 279 0 278 0 6 -28 c3 -15 35
-191 71 -392 37 -201 68 -373 71 -382 5 -17 25 -18 244 -18 l238 0 26 31 c14
17 26 38 26 47 0 9 -157 751 -348 1647 l-349 1630 -266 3 -267 2 -5 -22z m375
-1548 c51 -278 95 -511 97 -517 4 -10 -39 -13 -197 -13 -157 0 -201 3 -198 13
3 6 47 243 99 524 51 282 96 509 99 505 4 -4 48 -234 100 -512z"/>
<path d="M8757 3752 l-27 -28 0 -1624 0 -1624 27 -28 27 -28 231 0 231 0 27
28 27 28 0 732 0 732 125 0 124 0 14 -47 c8 -27 103 -369 213 -760 l198 -713
243 0 242 0 25 33 c15 19 26 39 26 45 0 6 -99 361 -220 789 -121 428 -216 779
-211 781 6 2 36 20 68 41 157 104 251 265 289 498 19 117 18 395 -1 506 -70
404 -317 608 -794 656 -57 6 -273 11 -480 11 l-377 0 -27 -28z m806 -422 c193
-22 278 -89 318 -250 19 -74 19 -346 0 -420 -32 -129 -97 -204 -206 -240 -70
-23 -195 -40 -302 -40 l-73 0 0 480 0 480 88 0 c48 0 126 -5 175 -10z"/>
<path d="M10948 3753 l-28 -29 0 -1624 0 -1624 27 -28 27 -28 231 0 231 0 27
28 27 28 0 732 0 732 123 0 122 0 211 -758 211 -757 245 -3 245 -2 26 37 26
38 -223 785 -223 785 50 27 c221 122 337 386 337 768 0 457 -168 733 -515 849
-176 59 -219 63 -705 68 l-445 5 -27 -29z m800 -423 c258 -33 331 -135 332
-463 0 -363 -99 -467 -467 -484 l-123 -6 0 481 0 482 88 0 c48 0 125 -5 170
-10z"/>
<path d="M13147 3752 l-27 -28 0 -1624 0 -1624 27 -28 27 -28 231 0 231 0 27
28 27 28 0 1624 0 1624 -27 28 -27 28 -231 0 -231 0 -27 -28z"/>
<path d="M14227 3752 l-27 -28 0 -1624 0 -1624 27 -28 27 -28 646 0 646 0 27
28 27 28 0 164 0 164 -27 28 -27 28 -388 0 -388 0 0 1432 0 1432 -27 28 -27
28 -231 0 -231 0 -27 -28z"/>
<path d="M15927 3752 l-27 -28 0 -1624 0 -1624 27 -28 27 -28 636 0 636 0 27
28 27 28 0 164 0 164 -27 28 -27 28 -378 0 -378 0 0 535 0 535 297 0 297 0 28
27 28 27 0 165 0 165 -27 28 -27 28 -298 0 -298 0 0 480 0 480 378 0 379 0 21
23 c21 22 22 32 22 198 l0 175 -28 27 -28 27 -630 0 -630 0 -27 -28z"/>
<path d="M17467 3752 l-27 -28 0 -175 c0 -239 -27 -219 298 -219 l252 0 0
-1427 0 -1427 27 -28 27 -28 231 0 231 0 27 28 27 28 0 1427 0 1427 243 0
c313 0 287 -20 287 221 l0 175 -28 27 -28 27 -770 0 -770 0 -27 -28z"/>
<path d="M19417 3752 l-27 -28 0 -1624 0 -1624 27 -28 27 -28 636 0 636 0 27
28 27 28 0 170 c0 165 -1 171 -23 192 -23 22 -27 22 -405 22 l-382 0 0 535 0
535 297 0 297 0 28 27 28 27 0 171 c0 237 35 215 -348 215 l-302 0 0 480 0
480 377 0 377 0 28 27 28 27 0 171 0 171 -28 27 -28 27 -635 0 -635 0 -27 -28z"/>
<path d="M149 2328 c11 -18 332 -549 713 -1180 381 -631 695 -1147 698 -1147
3 -1 4 530 2 1179 l-2 1180 -716 0 -716 0 21 -32z"/>
<path d="M1848 1180 c-2 -649 -1 -1180 2 -1180 4 0 1403 2306 1427 2353 2 4
-318 7 -711 7 l-716 0 -2 -1180z"/>
</g>
</svg>
