<svg width="512" height="512" xmlns="http://www.w3.org/2000/svg" xmlns:svg="http://www.w3.org/2000/svg">
    <g>
        <title>Layer 1</title>
        <rect id="svg_4" height="267" width="345" y="123" x="85" stroke-width="0" stroke="#000000" fill="#ffffff"/>
        <g id="svg_1">
            <path id="svg_2" fill="#34495E" class="active-path" d="m224.11328,303.96094l83.27344,-47.96094l-83.27344,-47.96094l0,95.92188zm0,0"/>
            <path id="svg_3" fill="#34495E" class="active-path" d="m256,0c-141.36328,0 -256,114.63672 -256,256s114.63672,256 256,256s256,-114.63672 256,-256s-114.63672,-256 -256,-256zm159.96094,256.26172s0,51.91797 -6.58594,76.95312c-3.69141,13.70313 -14.49609,24.50782 -28.19922,28.19532c-25.03515,6.58984 -125.17578,6.58984 -125.17578,6.58984s-99.87891,0 -125.17578,-6.85156c-13.70313,-3.6875 -24.50781,-14.4961 -28.19922,-28.19922c-6.58984,-24.76953 -6.58984,-76.94922 -6.58984,-76.94922s0,-51.91406 6.58984,-76.94922c3.6875,-13.70312 14.75781,-24.77344 28.19922,-28.46094c25.03516,-6.58984 125.17578,-6.58984 125.17578,-6.58984s100.14063,0 125.17578,6.85156c13.70313,3.6875 24.50781,14.4961 28.19922,28.19922c6.85156,25.03516 6.58594,77.21094 6.58594,77.21094zm0,0"/>
        </g>
    </g>
</svg>
